<mxfile host="app.diagrams.net" agent="Mozilla/5.0 (Windows NT 10.0; Win64; x64) AppleWebKit/537.36 (KHTML, like Gecko) Chrome/126.0.0.0 Safari/537.36" version="24.8.3" pages="2">
  <diagram id="C5RBs43oDa-KdzZeNtuy" name="Page-1">
    <mxGraphModel dx="860" dy="737" grid="0" gridSize="10" guides="1" tooltips="1" connect="1" arrows="1" fold="1" page="1" pageScale="1" pageWidth="827" pageHeight="1169" math="0" shadow="0">
      <root>
        <mxCell id="WIyWlLk6GJQsqaUBKTNV-0" />
        <mxCell id="WIyWlLk6GJQsqaUBKTNV-1" parent="WIyWlLk6GJQsqaUBKTNV-0" />
        <mxCell id="WIyWlLk6GJQsqaUBKTNV-2" value="" style="rounded=0;html=1;jettySize=auto;orthogonalLoop=1;fontSize=11;endArrow=block;endFill=0;endSize=8;strokeWidth=1;shadow=0;labelBackgroundColor=none;edgeStyle=orthogonalEdgeStyle;entryX=0;entryY=0.5;entryDx=0;entryDy=0;" parent="WIyWlLk6GJQsqaUBKTNV-1" source="WIyWlLk6GJQsqaUBKTNV-3" target="WIyWlLk6GJQsqaUBKTNV-7" edge="1">
          <mxGeometry relative="1" as="geometry">
            <mxPoint x="219.9999999999999" y="170.0000000000001" as="targetPoint" />
          </mxGeometry>
        </mxCell>
        <mxCell id="WIyWlLk6GJQsqaUBKTNV-3" value="&lt;b&gt;Input control&lt;/b&gt;&lt;br&gt;&lt;font color=&quot;#696969&quot; style=&quot;font-size: 9px;&quot;&gt;Тип: дискретный&lt;/font&gt;&lt;div&gt;&lt;font color=&quot;#696969&quot; style=&quot;font-size: 9px;&quot;&gt;switch -&amp;nbsp;&lt;/font&gt;&lt;span style=&quot;font-size: 9px; color: rgb(105, 105, 105); background-color: initial;&quot;&gt;on/off&lt;/span&gt;&lt;/div&gt;" style="rounded=1;whiteSpace=wrap;html=1;fontSize=12;glass=0;strokeWidth=1;shadow=0;" parent="WIyWlLk6GJQsqaUBKTNV-1" vertex="1">
          <mxGeometry x="40" y="30" width="120" height="50" as="geometry" />
        </mxCell>
        <mxCell id="WIyWlLk6GJQsqaUBKTNV-7" value="&lt;b&gt;Output control&lt;/b&gt;&lt;br&gt;&lt;font style=&quot;font-size: 9px;&quot; color=&quot;#696969&quot;&gt;Тип: дискретный&lt;/font&gt;&lt;div&gt;&lt;font style=&quot;font-size: 9px;&quot; color=&quot;#696969&quot;&gt;switch -&amp;nbsp;&lt;/font&gt;&lt;span style=&quot;font-size: 9px; color: rgb(105, 105, 105); background-color: initial;&quot;&gt;on/off&lt;/span&gt;&lt;/div&gt;" style="rounded=1;whiteSpace=wrap;html=1;fontSize=12;glass=0;strokeWidth=1;shadow=0;" parent="WIyWlLk6GJQsqaUBKTNV-1" vertex="1">
          <mxGeometry x="280" y="30" width="120" height="50" as="geometry" />
        </mxCell>
        <mxCell id="roviZtE7cKlpuhtUujg0-0" value="&lt;div style=&quot;font-size: 11px; text-wrap: nowrap;&quot;&gt;&lt;font style=&quot;font-size: 9px;&quot; color=&quot;#696969&quot;&gt;Копирование&amp;nbsp;&lt;/font&gt;&lt;span style=&quot;font-size: 9px; color: rgb(105, 105, 105);&quot;&gt;состояния&lt;/span&gt;&lt;/div&gt;&lt;div style=&quot;font-size: 11px; text-wrap: nowrap;&quot;&gt;&lt;span style=&quot;font-size: 9px; color: rgb(105, 105, 105);&quot;&gt;(прямое или инверсное)&lt;/span&gt;&lt;/div&gt;" style="text;html=1;align=center;verticalAlign=middle;whiteSpace=wrap;rounded=0;" parent="WIyWlLk6GJQsqaUBKTNV-1" vertex="1">
          <mxGeometry x="165" y="24" width="110" height="30" as="geometry" />
        </mxCell>
      </root>
    </mxGraphModel>
  </diagram>
  <diagram id="ChcpdT79Q8DjkFeZ7sNw" name="Страница — 2">
    <mxGraphModel dx="398" dy="205" grid="1" gridSize="10" guides="1" tooltips="1" connect="1" arrows="1" fold="1" page="1" pageScale="1" pageWidth="827" pageHeight="1169" math="0" shadow="0">
      <root>
        <mxCell id="0" />
        <mxCell id="1" parent="0" />
        <mxCell id="NqQAuKqOYX-SjGZeo0sO-2" value="" style="rounded=1;whiteSpace=wrap;html=1;fontSize=12;glass=0;strokeWidth=1;shadow=0;" parent="1" vertex="1">
          <mxGeometry x="140" y="184.75" width="40" height="10" as="geometry" />
        </mxCell>
        <mxCell id="NqQAuKqOYX-SjGZeo0sO-5" value="&lt;div style=&quot;&quot;&gt;&lt;font color=&quot;#67affc&quot;&gt;&lt;b&gt;Tacked event&lt;/b&gt;&lt;/font&gt;&lt;br&gt;&lt;span style=&quot;font-size: 12px; text-wrap: wrap;&quot;&gt;Input controls&lt;/span&gt;&lt;br&gt;&lt;/div&gt;" style="text;html=1;align=center;verticalAlign=middle;whiteSpace=wrap;rounded=0;" parent="1" vertex="1">
          <mxGeometry x="110" y="150" width="80" height="28" as="geometry" />
        </mxCell>
        <mxCell id="NqQAuKqOYX-SjGZeo0sO-6" value="" style="shape=curlyBracket;whiteSpace=wrap;html=1;rounded=1;flipH=1;labelPosition=right;verticalLabelPosition=middle;align=left;verticalAlign=middle;" parent="1" vertex="1">
          <mxGeometry x="180" y="180" width="20" height="35" as="geometry" />
        </mxCell>
        <mxCell id="NqQAuKqOYX-SjGZeo0sO-9" value="" style="shape=curlyBracket;whiteSpace=wrap;html=1;rounded=1;flipH=0;labelPosition=right;verticalLabelPosition=middle;align=left;verticalAlign=middle;" parent="1" vertex="1">
          <mxGeometry x="275" y="180" width="20" height="35" as="geometry" />
        </mxCell>
        <mxCell id="NqQAuKqOYX-SjGZeo0sO-10" value="&lt;div style=&quot;text-wrap: nowrap;&quot;&gt;&lt;span style=&quot;text-wrap: wrap;&quot;&gt;&lt;font style=&quot;&quot; color=&quot;#67affc&quot;&gt;&lt;b&gt;Change action&lt;/b&gt;&lt;/font&gt;&lt;/span&gt;&lt;span style=&quot;text-wrap: wrap;&quot;&gt;&lt;br&gt;&lt;/span&gt;&lt;/div&gt;&lt;div style=&quot;text-wrap: nowrap;&quot;&gt;&lt;span style=&quot;text-wrap: wrap;&quot;&gt;Output control&lt;/span&gt;&lt;/div&gt;" style="text;html=1;align=center;verticalAlign=middle;whiteSpace=wrap;rounded=0;" parent="1" vertex="1">
          <mxGeometry x="285" y="150" width="94" height="30" as="geometry" />
        </mxCell>
        <mxCell id="NqQAuKqOYX-SjGZeo0sO-17" value="&lt;div style=&quot;text-wrap: nowrap;&quot;&gt;&lt;div style=&quot;text-wrap: wrap;&quot;&gt;&lt;span style=&quot;background-color: initial;&quot;&gt;&lt;font color=&quot;#6666ff&quot; style=&quot;font-size: 7px;&quot;&gt;dev1/ctrl1&lt;/font&gt;&lt;/span&gt;&lt;/div&gt;&lt;/div&gt;" style="text;html=1;align=center;verticalAlign=middle;whiteSpace=wrap;rounded=0;" parent="1" vertex="1">
          <mxGeometry x="145" y="183.25" width="30" height="9" as="geometry" />
        </mxCell>
        <mxCell id="NqQAuKqOYX-SjGZeo0sO-24" value="&lt;div style=&quot;text-wrap: nowrap;&quot;&gt;&lt;b style=&quot;text-wrap: wrap;&quot;&gt;&lt;font color=&quot;#67affc&quot; style=&quot;font-size: 17px;&quot;&gt;If&lt;/font&gt;&lt;br&gt;&lt;/b&gt;&lt;/div&gt;" style="text;html=1;align=center;verticalAlign=middle;whiteSpace=wrap;rounded=0;" parent="1" vertex="1">
          <mxGeometry x="90" y="188" width="20" height="18.5" as="geometry" />
        </mxCell>
        <mxCell id="NqQAuKqOYX-SjGZeo0sO-25" value="&lt;div style=&quot;text-wrap: nowrap;&quot;&gt;&lt;div&gt;&lt;b&gt;&lt;font color=&quot;#67affc&quot; style=&quot;font-size: 17px;&quot;&gt;Then&lt;/font&gt;&lt;/b&gt;&lt;/div&gt;&lt;div&gt;&lt;b&gt;&lt;font color=&quot;#67affc&quot; size=&quot;3&quot;&gt;Run&lt;/font&gt;&lt;/b&gt;&lt;/div&gt;&lt;/div&gt;" style="text;html=1;align=center;verticalAlign=middle;whiteSpace=wrap;rounded=0;" parent="1" vertex="1">
          <mxGeometry x="222" y="174.75" width="30" height="43" as="geometry" />
        </mxCell>
        <mxCell id="4DNFKGJz6SCZkml9PxqR-1" value="&lt;div style=&quot;forced-color-adjust: none; color: rgb(0, 0, 0); font-family: Helvetica; font-style: normal; font-variant-ligatures: normal; font-variant-caps: normal; font-weight: 400; letter-spacing: normal; orphans: 2; text-align: center; text-indent: 0px; text-transform: none; widows: 2; word-spacing: 0px; -webkit-text-stroke-width: 0px; white-space: normal; background-color: rgb(251, 251, 251); text-decoration-thickness: initial; text-decoration-style: initial; text-decoration-color: initial; font-size: 12px;&quot;&gt;&lt;font color=&quot;#696969&quot; style=&quot;forced-color-adjust: none; font-size: 9px;&quot;&gt;switch&lt;/font&gt;&lt;/div&gt;" style="text;whiteSpace=wrap;html=1;" vertex="1" parent="1">
          <mxGeometry x="110" y="174.75" width="30" height="20" as="geometry" />
        </mxCell>
        <mxCell id="4DNFKGJz6SCZkml9PxqR-2" value="" style="rounded=1;whiteSpace=wrap;html=1;fontSize=12;glass=0;strokeWidth=1;shadow=0;" vertex="1" parent="1">
          <mxGeometry x="140" y="201.75" width="40" height="10" as="geometry" />
        </mxCell>
        <mxCell id="4DNFKGJz6SCZkml9PxqR-3" value="&lt;div style=&quot;text-wrap: nowrap;&quot;&gt;&lt;div style=&quot;text-wrap: wrap;&quot;&gt;&lt;span style=&quot;background-color: initial;&quot;&gt;&lt;font color=&quot;#6666ff&quot; style=&quot;font-size: 7px;&quot;&gt;dev2/ctrl2&lt;/font&gt;&lt;/span&gt;&lt;/div&gt;&lt;/div&gt;" style="text;html=1;align=center;verticalAlign=middle;whiteSpace=wrap;rounded=0;" vertex="1" parent="1">
          <mxGeometry x="145" y="200.25" width="30" height="9" as="geometry" />
        </mxCell>
        <mxCell id="4DNFKGJz6SCZkml9PxqR-4" value="&lt;div style=&quot;forced-color-adjust: none; color: rgb(0, 0, 0); font-family: Helvetica; font-style: normal; font-variant-ligatures: normal; font-variant-caps: normal; font-weight: 400; letter-spacing: normal; orphans: 2; text-align: center; text-indent: 0px; text-transform: none; widows: 2; word-spacing: 0px; -webkit-text-stroke-width: 0px; white-space: normal; background-color: rgb(251, 251, 251); text-decoration-thickness: initial; text-decoration-style: initial; text-decoration-color: initial; font-size: 12px;&quot;&gt;&lt;font color=&quot;#696969&quot; style=&quot;forced-color-adjust: none; font-size: 9px;&quot;&gt;value&lt;/font&gt;&lt;/div&gt;" style="text;whiteSpace=wrap;html=1;" vertex="1" parent="1">
          <mxGeometry x="110" y="191.75" width="30" height="20" as="geometry" />
        </mxCell>
        <mxCell id="4DNFKGJz6SCZkml9PxqR-8" value="" style="rounded=1;whiteSpace=wrap;html=1;fontSize=12;glass=0;strokeWidth=1;shadow=0;" vertex="1" parent="1">
          <mxGeometry x="295" y="184.75" width="40" height="10" as="geometry" />
        </mxCell>
        <mxCell id="4DNFKGJz6SCZkml9PxqR-9" value="&lt;div style=&quot;text-wrap: nowrap;&quot;&gt;&lt;div style=&quot;text-wrap: wrap;&quot;&gt;&lt;span style=&quot;background-color: initial;&quot;&gt;&lt;font color=&quot;#6666ff&quot; style=&quot;font-size: 7px;&quot;&gt;dev3/ctrl3&lt;/font&gt;&lt;/span&gt;&lt;/div&gt;&lt;/div&gt;" style="text;html=1;align=center;verticalAlign=middle;whiteSpace=wrap;rounded=0;" vertex="1" parent="1">
          <mxGeometry x="300" y="183.25" width="30" height="9" as="geometry" />
        </mxCell>
        <mxCell id="4DNFKGJz6SCZkml9PxqR-10" value="" style="rounded=1;whiteSpace=wrap;html=1;fontSize=12;glass=0;strokeWidth=1;shadow=0;" vertex="1" parent="1">
          <mxGeometry x="295" y="201.75" width="40" height="10" as="geometry" />
        </mxCell>
        <mxCell id="4DNFKGJz6SCZkml9PxqR-11" value="&lt;div style=&quot;text-wrap: nowrap;&quot;&gt;&lt;div style=&quot;text-wrap: wrap;&quot;&gt;&lt;span style=&quot;background-color: initial;&quot;&gt;&lt;font color=&quot;#6666ff&quot; style=&quot;font-size: 7px;&quot;&gt;dev4/ctrl4&lt;/font&gt;&lt;/span&gt;&lt;/div&gt;&lt;/div&gt;" style="text;html=1;align=center;verticalAlign=middle;whiteSpace=wrap;rounded=0;" vertex="1" parent="1">
          <mxGeometry x="300" y="200.25" width="30" height="9" as="geometry" />
        </mxCell>
        <mxCell id="4DNFKGJz6SCZkml9PxqR-12" value="&lt;div style=&quot;forced-color-adjust: none; color: rgb(0, 0, 0); font-family: Helvetica; font-style: normal; font-variant-ligatures: normal; font-variant-caps: normal; font-weight: 400; letter-spacing: normal; orphans: 2; text-align: center; text-indent: 0px; text-transform: none; widows: 2; word-spacing: 0px; -webkit-text-stroke-width: 0px; white-space: normal; background-color: rgb(251, 251, 251); text-decoration-thickness: initial; text-decoration-style: initial; text-decoration-color: initial; font-size: 12px;&quot;&gt;&lt;font color=&quot;#696969&quot; style=&quot;forced-color-adjust: none; font-size: 9px;&quot;&gt;switch&lt;/font&gt;&lt;/div&gt;" style="text;whiteSpace=wrap;html=1;" vertex="1" parent="1">
          <mxGeometry x="335" y="192.25" width="30" height="20" as="geometry" />
        </mxCell>
        <mxCell id="4DNFKGJz6SCZkml9PxqR-13" value="&lt;div style=&quot;forced-color-adjust: none; color: rgb(0, 0, 0); font-family: Helvetica; font-style: normal; font-variant-ligatures: normal; font-variant-caps: normal; font-weight: 400; letter-spacing: normal; orphans: 2; text-align: center; text-indent: 0px; text-transform: none; widows: 2; word-spacing: 0px; -webkit-text-stroke-width: 0px; white-space: normal; background-color: rgb(251, 251, 251); text-decoration-thickness: initial; text-decoration-style: initial; text-decoration-color: initial; font-size: 12px;&quot;&gt;&lt;font color=&quot;#696969&quot; style=&quot;forced-color-adjust: none; font-size: 9px;&quot;&gt;value&lt;/font&gt;&lt;/div&gt;" style="text;whiteSpace=wrap;html=1;" vertex="1" parent="1">
          <mxGeometry x="335" y="174.75" width="30" height="20" as="geometry" />
        </mxCell>
        <mxCell id="4DNFKGJz6SCZkml9PxqR-17" value="" style="endArrow=classic;html=1;rounded=0;strokeColor=#67AFFC;" edge="1" parent="1">
          <mxGeometry width="50" height="50" relative="1" as="geometry">
            <mxPoint x="202" y="197.36" as="sourcePoint" />
            <mxPoint x="272" y="197" as="targetPoint" />
          </mxGeometry>
        </mxCell>
      </root>
    </mxGraphModel>
  </diagram>
</mxfile>
